<svg id="Tavole" xmlns="http://www.w3.org/2000/svg" viewBox="0 0 884.18 385.74"><defs><style>.cls-1{fill:#1e789f;}.cls-2{fill:#0b2e4f;}.cls-3{fill:#818387;}</style></defs><path class="cls-1" d="M400.66,283.88H49.8A49.86,49.86,0,0,1,0,234.07V49.81A49.86,49.86,0,0,1,49.8,0H400.66V17H49.8A32.85,32.85,0,0,0,17,49.82V234.1A32.84,32.84,0,0,0,49.8,266.88H400.66Z"/><path class="cls-2" d="M834.38,283.88H450.71v-17H834.38a32.85,32.85,0,0,0,32.81-32.81V49.81A32.85,32.85,0,0,0,834.38,17H450.71V0H834.38a49.86,49.86,0,0,1,49.8,49.8V234.1A49.86,49.86,0,0,1,834.38,283.88Z"/><path class="cls-2" d="M100.27,84.79V201h-17V84.79Z"/><path class="cls-2" d="M137.29,201H120.46V84.79h16.83L200.45,180h-4.81V84.79h16.83V201H195.64l-63-95.22h4.65Z"/><path class="cls-2" d="M247.09,84.79V201h-17V84.79Zm45,67.32h-61V136.72h61.07Zm8.5-51.78h-69.2V84.79h69.25Z"/><path class="cls-2" d="M417.15,142.81q0,17.64-7.14,31.18a53.34,53.34,0,0,1-19.8,21.24q-12.66,7.65-29.12,7.7t-29.17-7.7a52.94,52.94,0,0,1-19.72-21.16q-7.11-13.45-7.11-31.26,0-17.62,7.14-31.17A53.34,53.34,0,0,1,332,90.4q12.66-7.7,29-7.7,16.67,0,29.25,7.7A53.82,53.82,0,0,1,410,111.56Q417.16,125,417.15,142.81Zm-17.8,0q0-13.29-4.73-23.08a36.39,36.39,0,0,0-13.3-15.23,40,40,0,0,0-40.32,0,36.13,36.13,0,0,0-13.38,15.23q-4.74,9.78-4.73,23.08t4.73,23.07A35.35,35.35,0,0,0,341,181.19a37.48,37.48,0,0,0,20.2,5.37,36.79,36.79,0,0,0,20.12-5.45,36.34,36.34,0,0,0,13.3-15.31Q399.35,156,399.35,142.81Z"/><path class="cls-1" d="M484.47,202.93q-16.68,0-29.17-7.46a50.4,50.4,0,0,1-19.4-21Q429,160.93,429,143t7.08-31.57a51.68,51.68,0,0,1,19.8-21q12.71-7.52,29.38-7.52a57.5,57.5,0,0,1,24.05,4.89,47,47,0,0,1,17.77,13.85,46.28,46.28,0,0,1,9.14,21.16H518.09a31.21,31.21,0,0,0-12-17.48q-8.82-6.24-21.32-6.25a36.79,36.79,0,0,0-20.12,5.45,35.76,35.76,0,0,0-13.22,15.23q-4.65,9.78-4.65,23.08t4.75,23.07a35.59,35.59,0,0,0,13.3,15.31,36.81,36.81,0,0,0,20,5.37q12.51,0,21.64-6.17a30.22,30.22,0,0,0,12.34-16.76h17.8a46.24,46.24,0,0,1-9.7,20.52,50.31,50.31,0,0,1-18.19,13.79A57.7,57.7,0,0,1,484.47,202.93Z"/><path class="cls-1" d="M623,201H551.68V84.79h71.18v15.54h-61.4l7.22-6.41v41h48.73V150H568.68v41.89l-7.22-6.58H623Z"/><path class="cls-1" d="M655.09,201h-17V84.79h44.08q18.92,0,29.57,9.29t10.66,26q0,12-5.77,20.28a33,33,0,0,1-16.35,12.1L723.37,201h-18.6l-21.32-45.36H655.09Zm0-101.12v40.88h27.09q10.58,0,16.51-5.53t5.93-15q0-9.93-6-15.15t-16.45-5.2Z"/><path class="cls-1" d="M729.09,100.33V84.79h86.25v15.54Zm51.62-7.69V201h-17V92.64Z"/><path class="cls-3" d="M228.46,338.28a9,9,0,0,1-.08,1.27,2.58,2.58,0,0,1-.25.86,1.15,1.15,0,0,1-.42.48,1.08,1.08,0,0,1-.55.15H213.22v43a.88.88,0,0,1-.16.54,1,1,0,0,1-.53.36,5.79,5.79,0,0,1-1,.23,9.44,9.44,0,0,1-1.59.1,10.27,10.27,0,0,1-1.57-.1,5.79,5.79,0,0,1-1-.23,1.1,1.1,0,0,1-.54-.36,1,1,0,0,1-.15-.54V341h-14a1.06,1.06,0,0,1-.55-.15,1,1,0,0,1-.4-.48,3.15,3.15,0,0,1-.25-.86,6.73,6.73,0,0,1-.1-1.27,6.84,6.84,0,0,1,.1-1.28,3.54,3.54,0,0,1,.25-.9,1.09,1.09,0,0,1,.4-.5,1.06,1.06,0,0,1,.55-.15h34.47a1.08,1.08,0,0,1,.55.15,1.2,1.2,0,0,1,.42.5,2.81,2.81,0,0,1,.25.9A9.07,9.07,0,0,1,228.46,338.28Z"/><path class="cls-3" d="M241,384a.88.88,0,0,1-.16.54,1,1,0,0,1-.53.36,5.79,5.79,0,0,1-1,.23,9.25,9.25,0,0,1-1.58.1,10.4,10.4,0,0,1-1.58-.1,5.79,5.79,0,0,1-1-.23,1,1,0,0,1-.53-.36.88.88,0,0,1-.16-.54V336.45a1,1,0,0,1,.17-.54,1.22,1.22,0,0,1,.58-.36,5.79,5.79,0,0,1,1-.23,9.63,9.63,0,0,1,1.52-.1,9.25,9.25,0,0,1,1.58.1,5.79,5.79,0,0,1,1,.23,1,1,0,0,1,.53.36.88.88,0,0,1,.16.54Z"/><path class="cls-3" d="M289.37,382.28a3,3,0,0,1-.25,1.3,2.6,2.6,0,0,1-1.61,1.38,3.37,3.37,0,0,1-1,.15h-2.18a6.82,6.82,0,0,1-1.8-.21,4.08,4.08,0,0,1-1.46-.76,7.44,7.44,0,0,1-1.39-1.52,19.61,19.61,0,0,1-1.47-2.45L263.09,352c-.8-1.45-1.59-3-2.39-4.57s-1.55-3.15-2.25-4.66h-.07c.05,1.84.09,3.72.11,5.63s0,3.82,0,5.71V384a.94.94,0,0,1-.16.52,1,1,0,0,1-.55.38,5,5,0,0,1-1,.23,12.77,12.77,0,0,1-3.19,0,4.84,4.84,0,0,1-1-.23,1,1,0,0,1-.69-.9V338.28a2.55,2.55,0,0,1,.87-2.18,3.12,3.12,0,0,1,1.9-.65h3.24a8.23,8.23,0,0,1,1.92.19,4.21,4.21,0,0,1,1.38.63,5.79,5.79,0,0,1,1.19,1.23,16.29,16.29,0,0,1,1.2,2l11.62,21.75c.72,1.33,1.41,2.62,2.07,3.89s1.31,2.5,1.93,3.73,1.22,2.43,1.83,3.62,1.2,2.38,1.79,3.58h0q-.07-3-.09-6.3V336.56a.9.9,0,0,1,.16-.5,1.52,1.52,0,0,1,.54-.4,3.86,3.86,0,0,1,1-.25,14.89,14.89,0,0,1,1.64-.07,13.23,13.23,0,0,1,1.54.07,3.5,3.5,0,0,1,1,.25,1.45,1.45,0,0,1,.52.4.9.9,0,0,1,.16.5Z"/><path class="cls-3" d="M327.89,382.28a8.2,8.2,0,0,1-.08,1.21,2.61,2.61,0,0,1-.27.86,1.22,1.22,0,0,1-.44.49,1,1,0,0,1-.55.16H302.77a2.73,2.73,0,0,1-1.67-.6,2.43,2.43,0,0,1-.78-2.08V338.13a2.45,2.45,0,0,1,.78-2.09,2.8,2.8,0,0,1,1.67-.59h23.51a1.06,1.06,0,0,1,.55.15,1.18,1.18,0,0,1,.41.5,4.4,4.4,0,0,1,.24.86,7,7,0,0,1,.1,1.29,6.08,6.08,0,0,1-.1,1.2,3.1,3.1,0,0,1-.24.84,1.13,1.13,0,0,1-.41.48,1,1,0,0,1-.55.16H306.9v15.54h16.62a1,1,0,0,1,.56.17,1.62,1.62,0,0,1,.42.48,2.72,2.72,0,0,1,.25.84,9,9,0,0,1,.07,1.27,7.84,7.84,0,0,1-.07,1.19,2.49,2.49,0,0,1-.25.8,1.18,1.18,0,0,1-.42.44,1.21,1.21,0,0,1-.56.13H306.9v17.73h19.65a1,1,0,0,1,.55.16,1.41,1.41,0,0,1,.44.47,2.29,2.29,0,0,1,.27.85A9.07,9.07,0,0,1,327.89,382.28Z"/><path class="cls-3" d="M369.56,382.62a4.35,4.35,0,0,1,.59,1.34.76.76,0,0,1-.25.79,2.18,2.18,0,0,1-1.13.38,16.16,16.16,0,0,1-2.09.1,16.85,16.85,0,0,1-1.91-.06,4,4,0,0,1-1.09-.21,1.51,1.51,0,0,1-1-.92l-11-19.72L340.54,384a2.33,2.33,0,0,1-.42.57,1.55,1.55,0,0,1-.63.37,5.08,5.08,0,0,1-1.09.19c-.46,0-1.07.06-1.84.06a14.81,14.81,0,0,1-2-.1,1.77,1.77,0,0,1-1-.38.82.82,0,0,1-.19-.79,4.62,4.62,0,0,1,.6-1.34l13.49-22.74-12.9-22a6.12,6.12,0,0,1-.6-1.36.76.76,0,0,1,.18-.8,1.79,1.79,0,0,1,1.07-.36c.51-.05,1.21-.08,2.11-.08a15.46,15.46,0,0,1,1.87.06,5.64,5.64,0,0,1,1.15.19,1.16,1.16,0,0,1,.61.38l.42.56L352,355l10.57-18.53a5,5,0,0,1,.38-.56,1.2,1.2,0,0,1,.56-.38,4.21,4.21,0,0,1,1-.19c.43,0,1-.06,1.76-.06a13.93,13.93,0,0,1,1.94.1,2.17,2.17,0,0,1,1.07.36.82.82,0,0,1,.25.78,4.72,4.72,0,0,1-.54,1.36l-12.87,21.87Z"/><path class="cls-3" d="M410.76,338.28a9,9,0,0,1-.08,1.27,2.58,2.58,0,0,1-.25.86,1.15,1.15,0,0,1-.42.48,1.09,1.09,0,0,1-.56.15H395.52v43a.88.88,0,0,1-.16.54,1,1,0,0,1-.53.36,5.79,5.79,0,0,1-1,.23,9.44,9.44,0,0,1-1.59.1,10.27,10.27,0,0,1-1.57-.1,5,5,0,0,1-1-.23,1.1,1.1,0,0,1-.54-.36A1,1,0,0,1,389,384V341H375a1.06,1.06,0,0,1-.55-.15,1,1,0,0,1-.4-.48,3.15,3.15,0,0,1-.25-.86,6.73,6.73,0,0,1-.1-1.27,6.84,6.84,0,0,1,.1-1.28,3.54,3.54,0,0,1,.25-.9,1.09,1.09,0,0,1,.4-.5,1.06,1.06,0,0,1,.55-.15h34.46a1.09,1.09,0,0,1,.56.15,1.2,1.2,0,0,1,.42.5,2.81,2.81,0,0,1,.25.9A9.07,9.07,0,0,1,410.76,338.28Z"/><path class="cls-3" d="M448.28,382.66a4.51,4.51,0,0,1,.33,1.36.94.94,0,0,1-.29.79,1.79,1.79,0,0,1-1,.34,17.25,17.25,0,0,1-1.9.08q-1.19,0-1.89-.06a4.37,4.37,0,0,1-1.07-.19,1.06,1.06,0,0,1-.54-.37,3.25,3.25,0,0,1-.33-.57L437.34,372h-20.6l-4.07,11.9a2.19,2.19,0,0,1-.3.59,1.45,1.45,0,0,1-.56.42,3.2,3.2,0,0,1-1,.25,16.88,16.88,0,0,1-1.74.08,12.27,12.27,0,0,1-1.82-.1,1.82,1.82,0,0,1-1-.36A1,1,0,0,1,406,384a5.3,5.3,0,0,1,.33-1.36l16.62-46a1.84,1.84,0,0,1,.4-.69,1.58,1.58,0,0,1,.73-.42,6.36,6.36,0,0,1,1.22-.21c.5,0,1.13-.06,1.9-.06a19.52,19.52,0,0,1,2,.06,5.69,5.69,0,0,1,1.3.21,1.71,1.71,0,0,1,.76.44,2.25,2.25,0,0,1,.43.71ZM427,342h0l-8.54,24.69h17.23Z"/><path class="cls-3" d="M511.5,342.19a7.79,7.79,0,0,1-.08,1.28,3.74,3.74,0,0,1-.22.92,1.12,1.12,0,0,1-.39.52.89.89,0,0,1-.5.15,3.4,3.4,0,0,1-1.53-.73,24.41,24.41,0,0,0-2.87-1.6,26.61,26.61,0,0,0-4.31-1.61,21.36,21.36,0,0,0-6-.73,17.52,17.52,0,0,0-7.35,1.49,15.93,15.93,0,0,0-5.52,4.14,18.5,18.5,0,0,0-3.46,6.28,26.94,26.94,0,0,0,.11,16.31,18,18,0,0,0,3.66,6.2,15.19,15.19,0,0,0,5.57,3.83,18.74,18.74,0,0,0,7.1,1.3,20.33,20.33,0,0,0,4.66-.55,17.61,17.61,0,0,0,4.38-1.67V363.29H493.31a1,1,0,0,1-1-.65,4.71,4.71,0,0,1-.33-2,8.65,8.65,0,0,1,.08-1.25,2.47,2.47,0,0,1,.25-.84,1.24,1.24,0,0,1,.4-.48,1,1,0,0,1,.57-.15h15.81a2.4,2.4,0,0,1,.84.15,2.43,2.43,0,0,1,.77.46,2.13,2.13,0,0,1,.54.84,4,4,0,0,1,.19,1.23v18.88a4.08,4.08,0,0,1-.35,1.72,3,3,0,0,1-1.45,1.28c-.74.37-1.7.77-2.87,1.21s-2.41.8-3.64,1.11a34.59,34.59,0,0,1-3.79.69,32,32,0,0,1-3.79.23,27.94,27.94,0,0,1-10.31-1.84,20.91,20.91,0,0,1-7.63-5.08,22.06,22.06,0,0,1-4.77-7.88,30.15,30.15,0,0,1-1.65-10.27A30.6,30.6,0,0,1,473,350a23.55,23.55,0,0,1,5-8.16,22.65,22.65,0,0,1,7.77-5.22,26.4,26.4,0,0,1,10-1.86,27.09,27.09,0,0,1,5.32.5,34,34,0,0,1,4.43,1.17,17.52,17.52,0,0,1,3.25,1.45,10.47,10.47,0,0,1,1.82,1.28,2.77,2.77,0,0,1,.69,1.15A6.83,6.83,0,0,1,511.5,342.19Z"/><path class="cls-3" d="M554.65,384a1.12,1.12,0,0,1-.12.54.88.88,0,0,1-.49.38,4.45,4.45,0,0,1-1.07.23,16.18,16.18,0,0,1-1.84.08,14.83,14.83,0,0,1-1.63-.08,3.2,3.2,0,0,1-1-.25,1.34,1.34,0,0,1-.6-.48,2.78,2.78,0,0,1-.36-.76L543,372c-.53-1.33-1.09-2.55-1.66-3.66a12.11,12.11,0,0,0-2.05-2.87,8.57,8.57,0,0,0-2.8-1.88,10.22,10.22,0,0,0-3.87-.67h-4.4V384a1,1,0,0,1-.17.54,1.17,1.17,0,0,1-.54.36,4.84,4.84,0,0,1-1,.23,13,13,0,0,1-3.18,0,5.79,5.79,0,0,1-1-.23.87.87,0,0,1-.68-.9V338.13a2.45,2.45,0,0,1,.78-2.09,2.74,2.74,0,0,1,1.67-.59h10.51a28.38,28.38,0,0,1,3.12.1c.83.1,1.57.13,2.24.21a18.77,18.77,0,0,1,5.07,1.57,12.2,12.2,0,0,1,3.7,2.71,11,11,0,0,1,2.23,3.78A15.11,15.11,0,0,1,551,353a11,11,0,0,1-1.93,3.48,12.56,12.56,0,0,1-3,2.63,19.21,19.21,0,0,1-3.94,1.87,9.19,9.19,0,0,1,2.22,1.36,12.16,12.16,0,0,1,1.86,2,19.87,19.87,0,0,1,1.62,2.64c.51,1,1,2.12,1.54,3.37l4.44,10.92c.35.92.58,1.56.69,1.93A3.87,3.87,0,0,1,554.65,384Zm-9.92-34.8a8.81,8.81,0,0,0-1.3-4.92,7.3,7.3,0,0,0-4.36-2.89,13.34,13.34,0,0,0-2.17-.39c-.8-.07-1.85-.11-3.16-.11h-5.55v16.69h6.43a14.32,14.32,0,0,0,4.5-.63,8.8,8.8,0,0,0,3.16-1.76,7,7,0,0,0,1.86-2.66A9.21,9.21,0,0,0,544.73,349.2Z"/><path class="cls-3" d="M603.09,359.65a38.56,38.56,0,0,1-1.41,10.84,22.94,22.94,0,0,1-4.23,8.21,18.67,18.67,0,0,1-7.06,5.18,25.13,25.13,0,0,1-9.92,1.82,25.48,25.48,0,0,1-9.66-1.67,16.93,16.93,0,0,1-6.74-4.84,20.63,20.63,0,0,1-4-7.89,41.25,41.25,0,0,1-1.3-10.84,37.11,37.11,0,0,1,1.45-10.58,22.14,22.14,0,0,1,4.25-8.14,18.79,18.79,0,0,1,7.08-5.17A28.1,28.1,0,0,1,591,336.4a17.35,17.35,0,0,1,6.76,4.8,20.35,20.35,0,0,1,4,7.82A38.93,38.93,0,0,1,603.09,359.65Zm-7,.46a38.83,38.83,0,0,0-.74-7.83,18.09,18.09,0,0,0-2.49-6.28,12.15,12.15,0,0,0-4.64-4.16,15.67,15.67,0,0,0-7.19-1.49,14.72,14.72,0,0,0-7.19,1.61,13.49,13.49,0,0,0-4.72,4.29,17.8,17.8,0,0,0-2.61,6.26,35.17,35.17,0,0,0-.78,7.52,41.35,41.35,0,0,0,.73,8,17.9,17.9,0,0,0,2.44,6.34,11.79,11.79,0,0,0,4.61,4.14,15.9,15.9,0,0,0,7.25,1.47,15,15,0,0,0,7.27-1.61,13.08,13.08,0,0,0,4.74-4.34,18.44,18.44,0,0,0,2.56-6.34,36.37,36.37,0,0,0,.76-7.58Z"/><path class="cls-3" d="M648.68,366.7a23.07,23.07,0,0,1-1.32,8.06,16.59,16.59,0,0,1-3.77,6,15.92,15.92,0,0,1-6,3.71,23.64,23.64,0,0,1-8,1.27,22.24,22.24,0,0,1-7.46-1.19,15.73,15.73,0,0,1-5.79-3.51,15.34,15.34,0,0,1-3.71-5.8,22.72,22.72,0,0,1-1.3-8V336.45a1,1,0,0,1,.15-.54,1,1,0,0,1,.54-.36,4.84,4.84,0,0,1,1-.23,13,13,0,0,1,3.18,0,4.84,4.84,0,0,1,1,.23,1,1,0,0,1,.51.36,1,1,0,0,1,.16.54v29.94a19.35,19.35,0,0,0,.84,6,11.43,11.43,0,0,0,2.43,4.27,10.08,10.08,0,0,0,3.83,2.57,14,14,0,0,0,5,.86,14.42,14.42,0,0,0,5.12-.85,9.78,9.78,0,0,0,3.79-2.52,11.43,11.43,0,0,0,2.37-4.18,18.5,18.5,0,0,0,.82-5.82V336.45a.88.88,0,0,1,.16-.54,1,1,0,0,1,.53-.36,5.79,5.79,0,0,1,1-.23,9.44,9.44,0,0,1,1.59-.1,10,10,0,0,1,1.55.1,4.84,4.84,0,0,1,1,.23,1.17,1.17,0,0,1,.54.36,1,1,0,0,1,.17.54Z"/><path class="cls-3" d="M689.88,350a17.64,17.64,0,0,1-1.22,6.7,14.17,14.17,0,0,1-3.51,5.1,15.79,15.79,0,0,1-5.59,3.25,24,24,0,0,1-7.9,1.15H666V384a.86.86,0,0,1-.18.54,1.14,1.14,0,0,1-.53.36,4.84,4.84,0,0,1-1,.23,12.93,12.93,0,0,1-3.17,0,5,5,0,0,1-1-.23,1.1,1.1,0,0,1-.54-.36,1,1,0,0,1-.15-.54V338.28a2.69,2.69,0,0,1,.8-2.18,2.82,2.82,0,0,1,1.8-.65h10.61a23.71,23.71,0,0,1,3.08.13,29.54,29.54,0,0,1,3.49.58,14.43,14.43,0,0,1,4.1,1.64,12.58,12.58,0,0,1,5.75,7.08A16,16,0,0,1,689.88,350Zm-6.93.54a10.31,10.31,0,0,0-1.13-5.06,7.82,7.82,0,0,0-2.79-3,9.44,9.44,0,0,0-3.45-1.26,22.62,22.62,0,0,0-3.49-.3H666v19.87h5.93a13.49,13.49,0,0,0,5-.77,9.21,9.21,0,0,0,3.31-2.12,8.8,8.8,0,0,0,2-3.26A11.68,11.68,0,0,0,683,350.5Z"/></svg>