<?xml version="1.0" encoding="UTF-8" standalone="no"?>
<!DOCTYPE svg PUBLIC "-//W3C//DTD SVG 1.1//EN" "http://www.w3.org/Graphics/SVG/1.1/DTD/svg11.dtd">
<svg xmlns="http://www.w3.org/2000/svg" version="1.1" viewBox="0.00 0.00 950.00 200.00">
<g stroke-width="2.00" fill="none" stroke-linecap="butt">
<path stroke="#0f436f" vector-effect="non-scaling-stroke" d="
  M 174.40 109.32
  Q 172.45 104.83 169.33 101.17
  Q 168.99 100.78 169.34 100.41
  Q 169.73 100.00 170.26 100.11
  A 0.02 0.01 47.0 0 1 170.26 100.14
  Q 170.09 100.17 169.91 100.08
  Q 169.77 100.02 169.66 99.85
  Q 161.14 87.69 151.73 76.40"
/>
<path stroke="#0f436f" vector-effect="non-scaling-stroke" d="
  M 148.10 119.84
  Q 138.72 110.28 128.59 100.43
  Q 113.03 85.30 90.87 80.20"
/>
</g>
<path fill="#0f4c81" d="
  M 0.00 0.00
  L 143.50 0.00
  Q 173.36 2.59 189.44 25.81
  C 208.34 53.10 201.37 90.13 174.40 109.32
  Q 172.45 104.83 169.33 101.17
  Q 168.99 100.78 169.34 100.41
  Q 169.73 100.00 170.26 100.11
  A 0.02 0.01 47.0 0 1 170.26 100.14
  Q 170.09 100.17 169.91 100.08
  Q 169.77 100.02 169.66 99.85
  Q 161.14 87.69 151.73 76.40
  Q 163.92 65.74 158.32 52.20
  C 156.14 46.93 151.87 43.04 146.59 41.22
  Q 143.18 40.04 134.79 40.05
  Q 67.39 40.06 0.00 40.03
  L 0.00 0.00
  Z"
/>
<path fill="#000000" d="
  M 276.34 0.00
  L 440.08 0.00
  L 440.10 39.47
  A 0.60 0.59 0.0 0 1 439.50 40.06
  L 240.51 40.06
  A 0.51 0.50 0.6 0 1 240.00 39.55
  C 240.08 18.25 255.33 2.61 276.34 0.00
  Z"
/>
<path fill="#000000" d="
  M 515.99 0.00
  L 516.59 0.00
  Q 547.49 69.98 578.27 140.05
  Q 583.15 151.16 586.31 154.38
  C 595.49 163.75 612.83 160.91 618.26 148.53
  Q 650.88 74.15 683.66 0.00
  L 684.51 0.00
  L 719.59 15.52
  A 0.93 0.92 24.2 0 1 720.06 16.74
  Q 688.97 87.31 657.76 158.16
  Q 652.59 169.89 648.69 175.25
  Q 633.16 196.63 605.14 200.00
  L 595.17 200.00
  Q 566.88 196.62 551.39 175.05
  Q 547.53 169.66 542.12 157.39
  Q 511.10 86.91 480.14 16.68
  A 0.82 0.81 66.1 0 1 480.55 15.60
  L 515.99 0.00
  Z"
/>
<path fill="#000000" d="
  M 828.85 0.00
  L 867.49 0.00
  C 914.52 9.76 947.58 48.38 950.00 96.39
  L 950.00 103.76
  C 947.38 151.58 914.81 190.22 867.90 200.00
  L 828.26 200.00
  Q 790.88 191.91 767.94 162.77
  C 738.98 125.99 739.12 72.86 769.04 36.06
  Q 791.98 7.85 828.85 0.00
  Z
  M 910.31 100.05
  A 62.15 62.15 0.0 0 0 848.16 37.90
  A 62.15 62.15 0.0 0 0 786.01 100.05
  A 62.15 62.15 0.0 0 0 848.16 162.20
  A 62.15 62.15 0.0 0 0 910.31 100.05
  Z"
/>
<path fill="#0e395d" d="
  M 151.73 76.40
  Q 161.14 87.69 169.66 99.85
  Q 169.77 100.02 169.91 100.08
  Q 170.09 100.17 170.26 100.14
  A 0.02 0.01 47.0 0 0 170.26 100.11
  Q 169.73 100.00 169.34 100.41
  Q 168.99 100.78 169.33 101.17
  Q 172.45 104.83 174.40 109.32
  Q 163.11 117.07 148.10 119.84
  Q 138.72 110.28 128.59 100.43
  Q 113.03 85.30 90.87 80.20
  Q 107.68 80.00 139.50 80.03
  Q 146.32 80.04 151.73 76.40
  Z"
/>
<path fill="#0f4c81" d="
  M 90.87 80.20
  Q 113.03 85.30 128.59 100.43
  Q 138.72 110.28 148.10 119.84
  L 199.79 171.44
  A 0.86 0.86 0.0 0 1 199.79 172.65
  L 172.43 200.00
  L 171.68 200.00
  Q 137.75 166.06 103.82 132.17
  Q 91.61 119.97 75.25 120.01
  Q 37.63 120.09 0.00 120.02
  L 0.00 80.17
  L 90.87 80.20
  Z"
/>
<rect fill="#000000" x="240.01" y="79.99" width="200.12" height="40.06" rx="0.73"/>
<path fill="#000000" d="
  M 440.03 200.00
  L 275.41 200.00
  C 255.12 197.20 239.91 181.28 240.03 160.69
  A 0.71 0.71 0.0 0 1 240.74 159.99
  L 439.51 159.99
  A 0.57 0.57 0.0 0 1 440.08 160.56
  L 440.03 200.00
  Z"
/>
</svg>
