<svg id="Layer_1" data-name="Layer 1" xmlns="http://www.w3.org/2000/svg" xmlns:xlink="http://www.w3.org/1999/xlink" viewBox="0 0 649.04 200"><defs><style>.cls-1{fill:#236a95;}.cls-2{fill:url(#linear-gradient);}.cls-3{fill:url(#linear-gradient-2);}</style><linearGradient id="linear-gradient" x1="102.88" y1="203.46" x2="102.88" y2="3.46" gradientUnits="userSpaceOnUse"><stop offset="0" stop-color="#ff6c2c"/><stop offset="0.21" stop-color="#ff702a"/><stop offset="0.42" stop-color="#ff7d24"/><stop offset="0.64" stop-color="#ff911a"/><stop offset="0.85" stop-color="#ffae0c"/><stop offset="1" stop-color="#ffc600"/></linearGradient><linearGradient id="linear-gradient-2" x1="179.54" y1="34.52" x2="117" y2="109.05" gradientUnits="userSpaceOnUse"><stop offset="0" stop-color="#fff" stop-opacity="0.5"/><stop offset="0.75" stop-color="#fff" stop-opacity="0"/></linearGradient></defs><title>logo-horizontal</title><path class="cls-1" d="M260.05,87h-3a4.35,4.35,0,0,1-3.67-2,9,9,0,0,1-1.43-5.34V77.87q0-3.82,1.59-5.66a8.83,8.83,0,0,1,4.3-2.63l3.19-.8a3.92,3.92,0,0,0,2.39-2.07l2.55-8.29q1.27-4.3,3.5-5.82a10.64,10.64,0,0,1,6.06-1.52h1q7.49,0,7.49,7.33V68.95a1.62,1.62,0,0,0,1.91,1.75H297.5q6.69,0,6.69,7.17v1.91q0,7.17-6.69,7.17H285.71A1.55,1.55,0,0,0,284,88.71v34.9q0,5.42,1.83,7.65t6.62,2.23a6.9,6.9,0,0,0,3.27-.72,5.59,5.59,0,0,1,2.63-.72q3.19,0,4.46,4.78c0.32,1.17.56,2.13,0.72,2.87a9.94,9.94,0,0,1,.24,2.07q0,4.62-4.62,6.54a25.73,25.73,0,0,1-7.65,2.39,57.53,57.53,0,0,1-8.77.64q-9.08,0-15-4.86t-5.9-15.06V88.71A1.55,1.55,0,0,0,260.05,87Z" transform="translate(-2.88 -3.46)"/><path class="cls-1" d="M316.79,72.61q2.55-2.23,7.49-2.23h2.23q4.94,0,7.49,2.23t2.55,7.33v60.4q0,5.1-2.55,7.33t-7.49,2.23h-2.39q-4.78,0-7.33-2.23t-2.55-7.33V79.94Q314.24,74.84,316.79,72.61Z" transform="translate(-2.88 -3.46)"/><path class="cls-1" d="M362.68,69.74h2.07q4.46,0,6.06,1.83a9.22,9.22,0,0,1,2.07,4.54l0.48,2.71c0.11,0.64.32,1,.64,1a1.29,1.29,0,0,0,1-.8,22.7,22.7,0,0,1,9.64-7.81,29.65,29.65,0,0,1,11.23-2.23q13.54,0,19.6,7.41t6.06,21.59v42.39q0,5.1-2.55,7.33t-7.49,2.23h-2.39q-4.78,0-7.33-2.23t-2.55-7.33V102.57q0-8.92-2.31-12.67t-9.64-3.75a10.92,10.92,0,0,0-6.77,2.23,15.84,15.84,0,0,0-4.54,5.26c-0.21.53-.4,1-0.56,1.44a4.57,4.57,0,0,0-.24,1.59v43.67q0,5.1-2.55,7.33t-7.49,2.23h-2.39q-4.78,0-7.33-2.23t-2.55-7.33V79.15Q352.8,69.74,362.68,69.74Z" transform="translate(-2.88 -3.46)"/><path class="cls-1" d="M433,118.75a20.46,20.46,0,0,1,5.58-7.17,30.76,30.76,0,0,1,8.53-4.86A72.42,72.42,0,0,1,458,103.53l12.75-2.71a1.77,1.77,0,0,0,1.59-1.91V96.67q0-6.53-3.66-8.53t-10.52-2a29.81,29.81,0,0,0-6.77.8q-3.43.8-6.93,1.91a8.57,8.57,0,0,1-2.71.48q-4.31,0-5.74-5.58a22.69,22.69,0,0,1-.64-2.95,15.56,15.56,0,0,1-.16-2A6.12,6.12,0,0,1,436.54,75a7.69,7.69,0,0,1,4.06-2.55,70.18,70.18,0,0,1,11.31-2.63,78.06,78.06,0,0,1,11.47-.87q15.78,0,23.51,6.06t7.73,20.08v35.86q0,2.87.16,4.7t0.4,3.11q0.24,1.28.48,2.31a9.67,9.67,0,0,1,.24,2.15,6.85,6.85,0,0,1-1.83,4.94,8.35,8.35,0,0,1-5.5,2.23q-1.27.16-3.35,0.32t-2.87.16a7.68,7.68,0,0,1-4.62-1.28,6.39,6.39,0,0,1-2.39-3.19c-0.21-.85-0.37-1.52-0.48-2a0.72,0.72,0,0,0-.48-0.72,1.38,1.38,0,0,0-1,.48,26.1,26.1,0,0,1-8.21,5.18,29.91,29.91,0,0,1-11.4,2,29.09,29.09,0,0,1-9.08-1.35,19.27,19.27,0,0,1-7.17-4.14,19.55,19.55,0,0,1-4.78-7A26.33,26.33,0,0,1,431,128.71,23.13,23.13,0,0,1,433,118.75Zm21,14.9a11.39,11.39,0,0,0,6.46,1.75,17.08,17.08,0,0,0,5.74-1,20.81,20.81,0,0,0,4.62-2.23,2.7,2.7,0,0,0,1.43-2.55V116.6q0-1.12-.8-1.12A17.23,17.23,0,0,0,469,116l-5.26,1.12a25.66,25.66,0,0,0-9.16,3.43q-3.11,2.15-3.11,6.93Q451.45,131.89,454.07,133.65Z" transform="translate(-2.88 -3.46)"/><path class="cls-1" d="M513,46.47q2.55-2.23,7.49-2.23h2.39q4.78,0,7.33,2.23t2.55,7.33v21a0.64,0.64,0,0,0,.64.79,1.68,1.68,0,0,0,1.12-.79,16.39,16.39,0,0,1,6.46-4.3,23.58,23.58,0,0,1,8.68-1.59,37.82,37.82,0,0,1,13.31,2.23,24.83,24.83,0,0,1,10.2,7.09,32.79,32.79,0,0,1,6.45,12.51,66.65,66.65,0,0,1,2.23,18.49q0,41.91-37.45,41.91a33.44,33.44,0,0,1-8.45-1,22.87,22.87,0,0,1-6.69-2.79,2.76,2.76,0,0,0-1.12-.48c-0.32,0-.69.48-1.12,1.44a3.34,3.34,0,0,1-2.23,2.07,15.6,15.6,0,0,1-4.3.48h-1.59q-8.45,0-8.45-9.4V53.8Q510.41,48.71,513,46.47Zm21.35,86.06a13.62,13.62,0,0,0,4.94,1.75,34,34,0,0,0,5.58.48,15,15,0,0,0,7.33-1.59,10.94,10.94,0,0,0,4.46-4.7,22.86,22.86,0,0,0,2.15-7.65,85.63,85.63,0,0,0,.56-10.28,94,94,0,0,0-.56-11,21,21,0,0,0-2.23-7.65,10,10,0,0,0-4.62-4.38,18.68,18.68,0,0,0-7.73-1.35,13.92,13.92,0,0,0-5.5,1.12,15.76,15.76,0,0,0-4.54,2.87A5.5,5.5,0,0,0,533,91.26a3.4,3.4,0,0,0-.32,1.75v37.13A2.55,2.55,0,0,0,534.31,132.53Z" transform="translate(-2.88 -3.46)"/><path class="cls-1" d="M589.05,118.75a20.46,20.46,0,0,1,5.58-7.17,30.75,30.75,0,0,1,8.53-4.86A72.41,72.41,0,0,1,614,103.53l12.75-2.71a1.77,1.77,0,0,0,1.59-1.91V96.67q0-6.53-3.66-8.53t-10.52-2a29.82,29.82,0,0,0-6.77.8q-3.42.8-6.93,1.91a8.56,8.56,0,0,1-2.71.48q-4.3,0-5.74-5.58a23.2,23.2,0,0,1-.64-2.95,15.85,15.85,0,0,1-.16-2A6.13,6.13,0,0,1,592.56,75a7.69,7.69,0,0,1,4.06-2.55,70.23,70.23,0,0,1,11.31-2.63,78.09,78.09,0,0,1,11.47-.87q15.78,0,23.51,6.06t7.73,20.08v35.86q0,2.87.16,4.7t0.4,3.11c0.16,0.85.32,1.62,0.48,2.31a9.44,9.44,0,0,1,.24,2.15,6.85,6.85,0,0,1-1.83,4.94,8.35,8.35,0,0,1-5.5,2.23q-1.27.16-3.35,0.32t-2.87.16a7.67,7.67,0,0,1-4.62-1.28,6.38,6.38,0,0,1-2.39-3.19c-0.21-.85-0.37-1.52-0.48-2a0.72,0.72,0,0,0-.48-0.72,1.38,1.38,0,0,0-1,.48,26.11,26.11,0,0,1-8.21,5.18,29.9,29.9,0,0,1-11.39,2,29.1,29.1,0,0,1-9.08-1.35,19.27,19.27,0,0,1-7.17-4.14,19.54,19.54,0,0,1-4.78-7,26.33,26.33,0,0,1-1.75-10.12A23.12,23.12,0,0,1,589.05,118.75Zm21,14.9a11.38,11.38,0,0,0,6.45,1.75,17.08,17.08,0,0,0,5.74-1,20.86,20.86,0,0,0,4.62-2.23,2.71,2.71,0,0,0,1.43-2.55V116.6q0-1.12-.79-1.12A17.21,17.21,0,0,0,625,116l-5.26,1.12a25.65,25.65,0,0,0-9.16,3.43q-3.11,2.15-3.11,6.93Q607.46,131.89,610.09,133.65Z" transform="translate(-2.88 -3.46)"/><path class="cls-2" d="M202.88,103.43a100,100,0,0,0-200,0h0V174a29.5,29.5,0,1,0,59,0V132.84a5.75,5.75,0,1,1,11.5,0V174a29.5,29.5,0,1,0,59,0V109.21a5.75,5.75,0,1,1,11.5,0V174a29.5,29.5,0,1,0,59,0V103.43h0Z" transform="translate(-2.88 -3.46)"/><path class="cls-3" d="M202.88,103.43a100,100,0,0,0-200,0h0V174a29.5,29.5,0,1,0,59,0V132.84a5.75,5.75,0,1,1,11.5,0V174a29.5,29.5,0,1,0,59,0V109.21a5.75,5.75,0,1,1,11.5,0V174a29.5,29.5,0,1,0,59,0V103.43h0Z" transform="translate(-2.88 -3.46)"/></svg>