<svg width="151" height="33" viewBox="0 0 151 33" fill="none" xmlns="http://www.w3.org/2000/svg">
<path d="M142.609 24.3337V12.1439H145.824L145.978 13.404C146.527 13.0611 147.204 12.7525 148.01 12.4782C148.833 12.1868 149.639 11.9896 150.427 11.8867V14.5098C149.964 14.5784 149.459 14.6813 148.91 14.8184C148.361 14.9556 147.838 15.1099 147.341 15.2814C146.844 15.4528 146.424 15.6328 146.081 15.8214V24.3337H142.609Z" fill="black"/>
<path d="M127.44 29.8886V12.1439H130.449L130.629 13.2754C131.161 12.8297 131.744 12.4868 132.378 12.2468C133.012 12.0067 133.758 11.8867 134.615 11.8867C136.398 11.8867 137.77 12.3753 138.73 13.3526C139.707 14.3127 140.196 15.89 140.196 18.0845C140.196 20.279 139.673 21.9163 138.627 22.9964C137.599 24.0594 136.193 24.5909 134.41 24.5909C133.038 24.5909 131.872 24.2823 130.912 23.6651V29.8886H127.44ZM133.535 22.0449C134.564 22.0449 135.344 21.7277 135.876 21.0934C136.407 20.459 136.673 19.4646 136.673 18.1102C136.673 16.8072 136.433 15.8728 135.953 15.3071C135.473 14.7242 134.701 14.4327 133.638 14.4327C132.575 14.4327 131.667 14.8013 130.912 15.5385V21.1191C131.272 21.3934 131.649 21.6163 132.044 21.7877C132.455 21.9592 132.952 22.0449 133.535 22.0449Z" fill="black"/>
<path d="M111.546 24.3332V7.77148H115.018V14.7922L121.395 7.77148H125.382L119.39 14.4836L125.69 24.3332H121.987L117.229 16.6952L115.018 19.0869V24.3332H111.546Z" fill="black"/>
<path d="M96.4497 24.3337V12.1439H99.6643L99.7929 13.3011C100.29 12.924 100.916 12.5982 101.67 12.3239C102.442 12.0324 103.248 11.8867 104.088 11.8867C105.699 11.8867 106.874 12.2639 107.611 13.0183C108.348 13.7726 108.717 14.9385 108.717 16.5158V24.3337H105.245V16.6958C105.245 15.8728 105.073 15.2899 104.731 14.947C104.405 14.6041 103.788 14.4327 102.879 14.4327C102.347 14.4327 101.807 14.5527 101.259 14.7927C100.727 15.0328 100.282 15.3328 99.9215 15.6928V24.3337H96.4497Z" fill="black"/>
<path d="M89.7383 9.90568V7.17969H93.5187V9.90568H89.7383ZM90.0212 24.3329V14.7147H88.1953L88.5039 12.143H93.493V24.3329H90.0212Z" fill="black"/>
<path d="M78.4834 24.5909C77.7119 24.5909 76.9918 24.4537 76.3231 24.1794C75.6716 23.8879 75.1402 23.4679 74.7287 22.9193C74.3344 22.3535 74.1372 21.6506 74.1372 20.8105C74.1372 19.6104 74.5572 18.6503 75.3973 17.9302C76.2546 17.2101 77.5147 16.8501 79.1777 16.8501H82.7781V16.5158C82.7781 15.7614 82.5638 15.2299 82.1352 14.9213C81.7237 14.6127 80.8836 14.4584 79.6149 14.4584C78.2262 14.4584 76.8889 14.6727 75.6031 15.1013V12.6582C76.1688 12.4353 76.8546 12.2553 77.6604 12.1182C78.4834 11.9639 79.3749 11.8867 80.335 11.8867C82.1695 11.8867 83.5839 12.2639 84.5783 13.0183C85.5898 13.7555 86.0956 14.947 86.0956 16.5929V24.3337H83.0867L82.9067 23.2279C82.4266 23.6565 81.8351 23.9908 81.1322 24.2308C80.4293 24.4709 79.5463 24.5909 78.4834 24.5909ZM79.4349 22.3021C80.2064 22.3021 80.875 22.1735 81.4408 21.9163C82.0066 21.6591 82.4523 21.3334 82.7781 20.9391V19.0103H79.2549C77.9004 19.0103 77.2232 19.5675 77.2232 20.6819C77.2232 21.762 77.9605 22.3021 79.4349 22.3021Z" fill="black"/>
<path d="M59.9336 24.3332V7H63.4054V13.1721C63.9026 12.7949 64.5112 12.4863 65.2313 12.2462C65.9513 12.0062 66.7314 11.8862 67.5715 11.8862C69.1831 11.8862 70.3575 12.2634 71.0947 13.0178C71.8319 13.7721 72.2006 14.9379 72.2006 16.5153V24.3332H68.7288V16.6953C68.7288 15.8723 68.5573 15.2894 68.2144 14.9465C67.8887 14.6036 67.2715 14.4322 66.3628 14.4322C65.8313 14.4322 65.2913 14.5522 64.7427 14.7922C64.2112 15.0322 63.7654 15.3323 63.4054 15.6923V24.3332H59.9336Z" fill="black"/>
<path d="M52.5894 24.5897C49.812 24.5897 47.6861 23.8439 46.2117 22.3523C44.7372 20.8436 44 18.7948 44 16.206C44 13.4628 44.7115 11.3283 46.1345 9.80248C47.5746 8.27661 49.7177 7.51367 52.5637 7.51367C53.5581 7.51367 54.4496 7.59082 55.2383 7.74512C56.0441 7.88228 56.7984 8.07944 57.5014 8.33661V11.3712C56.0441 10.7711 54.4839 10.4711 52.8209 10.4711C50.935 10.4711 49.5806 10.9426 48.7576 11.8855C47.9347 12.8285 47.5232 14.2686 47.5232 16.206C47.5232 19.8406 49.3063 21.658 52.8723 21.658C53.6781 21.658 54.4754 21.5894 55.264 21.4522C56.0527 21.2979 56.807 21.0751 57.5271 20.7836V23.8439C56.8242 24.0668 56.0698 24.2468 55.264 24.384C54.4754 24.5211 53.5838 24.5897 52.5894 24.5897Z" fill="black"/>
<path fill-rule="evenodd" clip-rule="evenodd" d="M20.0156 0.436935C18.8101 0.151211 17.5527 0 16.26 0C7.28419 0 0.0078125 7.29054 0.0078125 16.2839C0.0078125 25.2772 7.28419 32.5677 16.26 32.5677C16.6952 32.5677 17.1264 32.5506 17.553 32.517C13.0548 28.9767 10.1655 23.4772 10.1655 17.3016C10.1655 10.0616 14.1366 3.7509 20.0156 0.436935ZM22.3399 31.39C28.3038 28.9781 32.5123 23.1234 32.5123 16.2839C32.5123 10.0523 29.0187 4.63836 23.887 1.90083C19.2522 5.43277 16.26 11.0171 16.26 17.3016C16.26 22.8558 18.5972 27.8631 22.3399 31.39Z" fill="url(#paint0_linear_3515_3173)"/>
<defs>
<linearGradient id="paint0_linear_3515_3173" x1="3.0551" y1="6.10645" x2="24.4332" y2="30.491" gradientUnits="userSpaceOnUse">
<stop stop-color="#F27134"/>
<stop offset="0.598958" stop-color="#E51CFF"/>
<stop offset="1" stop-color="#1E88EA"/>
</linearGradient>
</defs>
</svg>
