<svg xmlns="http://www.w3.org/2000/svg" version="1.1" xmlns:xlink="http://www.w3.org/1999/xlink" xmlns:svgjs="http://svgjs.com/svgjs" width="210" height="210"><svg width="210" height="210" viewBox="0 0 210 210" fill="none" xmlns="http://www.w3.org/2000/svg">
<path d="M56.7638 96.4483C60.9212 93.1949 62.5841 88.4956 62.1683 83.7961L104.99 70.421C106.653 70.0595 107.485 68.252 107.069 66.8061C106.653 65.3602 104.574 64.6371 102.911 64.9986L60.0896 78.3737C59.6741 77.6508 58.8425 76.9278 58.4267 76.2049C52.6063 70.421 42.2127 70.0595 35.5607 75.1203C28.9089 80.1812 28.4931 89.2184 34.3136 95.0024C39.7182 101.148 50.1118 101.871 56.7638 96.4483Z" fill="black"></path>
<path d="M47.63 23.4242C50.5403 21.6167 50.9561 18.0019 48.8773 15.8329C46.3828 13.6639 42.6412 13.3025 40.1467 15.1099C37.2363 16.9174 36.8208 20.1708 39.3151 22.7013C41.3938 24.8701 45.1357 25.2316 47.63 23.4242Z" fill="black"></path>
<path d="M96.295 15.4716C98.7895 13.6641 99.2053 10.4107 97.1266 7.88026C95.0479 5.71131 91.306 5.34982 88.3959 7.15728C85.9014 8.96474 85.4856 12.2182 87.5643 14.7486C89.6431 16.9175 93.8005 17.279 96.295 15.4716Z" fill="black"></path>
<path d="M81.8402 31.69C86.0138 26.9253 85.1031 20.2191 79.806 16.7111C74.509 13.2031 66.8318 14.2217 62.6581 18.9863C58.4845 23.7509 59.395 30.4571 64.692 33.965C69.9891 37.473 77.6666 36.4544 81.8402 31.69Z" fill="black"></path>
<path d="M99.1832 36.4376L81.3063 42.2215C79.6431 42.583 78.8118 44.3905 79.2276 45.8364C79.6431 47.2823 81.7218 48.0054 83.385 47.6439L101.262 42.2215C105.004 46.5595 111.656 48.0054 117.06 45.4749C122.881 42.583 124.959 36.0763 121.633 31.0152C118.307 25.9543 110.824 24.1469 105.004 27.039C100.846 28.1233 98.7674 32.0998 99.1832 36.4376Z" fill="black"></path>
<path d="M58.6466 62.3849C63.5856 58.2102 63.8271 51.4607 59.1859 47.3096C54.5446 43.1584 46.7788 43.1772 41.8398 47.3518C36.9008 51.5265 36.6595 58.276 41.3005 62.4272C45.9417 66.5783 53.7078 66.5595 58.6466 62.3849Z" fill="black"></path>
<path d="M63.0169 124.641C63.0169 123.557 63.0169 122.472 62.6011 121.388L132.446 99.3368C134.109 98.9752 134.941 97.1678 134.525 95.7219C134.109 94.2759 132.031 93.5529 130.368 93.9144L60.5224 115.965C57.6123 111.266 51.7919 108.374 45.14 108.013C35.1622 107.651 26.4314 114.519 26.0157 123.557C25.5999 132.233 33.499 139.824 43.8926 140.185C54.2862 140.185 62.6011 133.317 63.0169 124.641Z" fill="black"></path>
<path d="M184.673 88.5061C186.566 79.8773 180.055 71.5481 170.131 69.9028C160.206 68.2575 150.628 73.9189 148.735 82.5479C146.843 91.1769 153.354 99.5058 163.278 101.151C173.202 102.796 182.781 97.1351 184.673 88.5061Z" fill="black"></path>
<path d="M85.5737 161.094C91.0951 155.48 90.3369 147.037 83.8802 142.236C77.4237 137.435 67.7135 138.095 62.1924 143.709C56.671 149.323 57.4294 157.766 63.8859 162.567C70.3427 167.367 80.0526 166.708 85.5737 161.094Z" fill="black"></path>
<path d="M154.487 113.073C150.329 116.327 148.666 121.026 149.082 125.725L106.26 139.1C104.597 139.462 103.766 141.269 104.182 142.715C104.597 144.161 106.676 144.884 108.339 144.523L151.161 131.148C151.576 131.871 152.408 132.594 152.824 133.317C158.644 139.1 169.038 139.462 175.69 134.401C182.342 129.34 182.757 120.303 176.937 114.519C171.532 108.374 161.139 107.651 154.487 113.073Z" fill="black"></path>
<path d="M163.641 186.094C160.73 187.902 160.315 191.517 162.393 193.686C164.472 195.855 168.214 196.216 171.124 194.409C173.619 192.601 174.034 189.348 171.956 186.817C169.877 184.648 166.135 184.287 163.641 186.094Z" fill="black"></path>
<path d="M114.996 194.045C112.501 195.853 112.085 199.106 114.164 201.637C116.243 203.806 119.985 204.167 122.895 202.36C125.389 200.552 125.805 197.299 123.726 194.768C121.647 192.599 117.49 192.238 114.996 194.045Z" fill="black"></path>
<path d="M148.594 190.534C152.769 185.77 151.86 179.063 146.564 175.554C141.268 172.045 133.59 173.062 129.415 177.826C125.24 182.59 126.149 189.297 131.445 192.806C136.741 196.315 144.419 195.298 148.594 190.534Z" fill="black"></path>
<path d="M112.088 173.08L129.965 167.296C131.628 166.935 132.459 165.127 132.044 163.681C131.628 162.235 129.549 161.512 127.886 161.874L110.009 167.296C106.267 162.958 99.6154 161.512 94.2108 164.043C88.3904 166.935 86.3117 173.442 89.6375 178.503C92.9636 183.563 100.447 185.371 106.267 182.479C110.425 181.394 112.503 177.418 112.088 173.08Z" fill="black"></path>
<path d="M169.424 162.168C174.363 157.993 174.605 151.244 169.964 147.093C165.323 142.941 157.556 142.96 152.618 147.135C147.679 151.309 147.437 158.059 152.078 162.21C156.719 166.361 164.486 166.342 169.424 162.168Z" fill="black"></path>
<path d="M149.052 65.8136C154.574 60.1996 153.815 51.7566 147.359 46.956C140.902 42.1551 131.192 42.8146 125.671 48.4285C120.15 54.0427 120.908 62.4855 127.364 67.2862C133.821 72.087 143.531 71.4276 149.052 65.8136Z" fill="black"></path>
</svg><style>@media (prefers-color-scheme: light) { :root { filter: none; } }
@media (prefers-color-scheme: dark) { :root { filter: contrast(0.3846153846153846) brightness(4.5); } }
</style></svg>