<svg width="24" height="24" viewBox="0 0 24 24" fill="none" xmlns="http://www.w3.org/2000/svg">
<path d="M19.9777 5.47044L12.1027 3.0159C12.0356 2.99503 11.9644 2.99503 11.8972 3.0159L4.02231 5.47044C3.94387 5.49481 3.87486 5.54642 3.82573 5.61744C3.77661 5.68846 3.75004 5.77501 3.75006 5.86398C3.75006 11.7029 5.94604 15.4956 7.7884 17.649C8.93645 19.0279 10.3159 20.1542 11.8522 20.9672C11.8989 20.989 11.9492 21.0002 12 21.0002C12.0508 21.0002 12.1011 20.989 12.1477 20.9672C13.6841 20.1542 15.0635 19.0279 16.2116 17.649C18.0539 15.4956 20.2499 11.7029 20.2499 5.86398C20.2499 5.77501 20.2234 5.68846 20.1742 5.61744C20.1251 5.54642 20.0561 5.49481 19.9777 5.47044Z" fill="url(#paint0_linear_305_150)"/>
<g filter="url(#filter0_i_305_150)">
<path d="M12.4911 5.75913L13.7827 8.37731L16.6692 8.79676C16.7699 8.81147 16.8644 8.85401 16.9421 8.9196C17.0198 8.98519 17.0777 9.0712 17.1091 9.16792C17.1405 9.26465 17.1443 9.36823 17.12 9.46698C17.0956 9.56573 17.0442 9.65571 16.9714 9.72676L14.8823 11.7635L15.3732 14.638C15.3904 14.7383 15.3792 14.8414 15.3408 14.9357C15.3025 15.03 15.2385 15.1116 15.1562 15.1714C15.0738 15.2312 14.9764 15.2668 14.8749 15.2742C14.7734 15.2815 14.6719 15.2603 14.5818 15.2129L12.0002 13.8547L9.41853 15.2118C9.32845 15.2592 9.22691 15.2804 9.12541 15.2731C9.0239 15.2657 8.92647 15.2302 8.84413 15.1703C8.76179 15.1105 8.69782 15.0289 8.65946 14.9346C8.62111 14.8403 8.60989 14.7372 8.62708 14.6369L9.11798 11.7624L7.0289 9.72566C6.95613 9.65462 6.90468 9.56464 6.88034 9.46589C6.85601 9.36714 6.85977 9.26356 6.8912 9.16683C6.92263 9.07011 6.98047 8.98409 7.0582 8.91851C7.13593 8.85292 7.23045 8.81037 7.33108 8.79567L10.2176 8.37622L11.5092 5.75804C11.5591 5.67189 11.6307 5.60038 11.7169 5.5507C11.8032 5.50102 11.901 5.47493 12.0005 5.47504C12.1 5.47515 12.1977 5.50146 12.2838 5.55133C12.37 5.6012 12.4414 5.67287 12.4911 5.75913Z" fill="white" fill-opacity="0.16"/>
</g>
<defs>
<filter id="filter0_i_305_150" x="6.8645" y="5.47504" width="10.2713" height="11.8005" filterUnits="userSpaceOnUse" color-interpolation-filters="sRGB">
<feFlood flood-opacity="0" result="BackgroundImageFix"/>
<feBlend mode="normal" in="SourceGraphic" in2="BackgroundImageFix" result="shape"/>
<feColorMatrix in="SourceAlpha" type="matrix" values="0 0 0 0 0 0 0 0 0 0 0 0 0 0 0 0 0 0 127 0" result="hardAlpha"/>
<feOffset dy="2"/>
<feGaussianBlur stdDeviation="1"/>
<feComposite in2="hardAlpha" operator="arithmetic" k2="-1" k3="1"/>
<feColorMatrix type="matrix" values="0 0 0 0 1 0 0 0 0 1 0 0 0 0 1 0 0 0 0.4 0"/>
<feBlend mode="normal" in2="shape" result="effect1_innerShadow_305_150"/>
</filter>
<linearGradient id="paint0_linear_305_150" x1="4" y1="6" x2="19.7957" y2="12.403" gradientUnits="userSpaceOnUse">
<stop stop-color="#724EFF"/>
<stop offset="0.635417" stop-color="#FF21C1"/>
<stop offset="1" stop-color="#FF7C32"/>
</linearGradient>
</defs>
</svg>
