<svg width="24" height="24" viewBox="0 0 24 24" fill="none" xmlns="http://www.w3.org/2000/svg">
<path d="M23.9884 4.39417C23.9639 4.28204 23.9018 4.18165 23.8124 4.10968L21.3124 2.10969C21.2388 2.0508 21.1501 2.0139 21.0565 2.00322C20.9629 1.99254 20.8682 2.00853 20.7833 2.04935C20.6984 2.09016 20.6267 2.15413 20.5766 2.2339C20.5264 2.31366 20.4998 2.40597 20.4999 2.50018V4.00018H0.499997C0.36739 4.00018 0.240213 4.05285 0.146446 4.14662C0.0526781 4.24039 0 4.36757 0 4.50017C0 4.63278 0.0526781 4.75996 0.146446 4.85372C0.240213 4.94749 0.36739 5.00017 0.499997 5.00017H20.4999V6.50016C20.4997 6.59442 20.5263 6.68679 20.5764 6.76663C20.6265 6.84647 20.6981 6.91052 20.7831 6.95139C20.868 6.99226 20.9628 7.0083 21.0564 6.99764C21.1501 6.98698 21.2388 6.95007 21.3124 6.89116L23.8034 4.90017C23.8634 4.85431 23.9123 4.79544 23.9463 4.72798C23.9804 4.66052 23.9987 4.58622 23.9999 4.51067C24.0005 4.47153 23.9967 4.43243 23.9884 4.39417Z" fill="url(#paint0_linear_202_751)"/>
<path d="M12 17.0001C14.7615 17.0001 17.0002 14.7615 17.0002 12C17.0002 9.23842 14.7615 6.99976 12 6.99976C9.23845 6.99976 6.99979 9.23842 6.99979 12C6.99979 14.7615 9.23845 17.0001 12 17.0001Z" fill="url(#paint1_linear_202_751)"/>
<path d="M23.4999 19.0007H3.50005V17.5007C3.50008 17.4065 3.4735 17.3142 3.42335 17.2344C3.37321 17.1546 3.30156 17.0906 3.21664 17.0498C3.13172 17.009 3.037 16.993 2.94339 17.0037C2.84978 17.0144 2.7611 17.0513 2.68755 17.1102L0.187566 19.1102C0.127934 19.1582 0.0800468 19.2192 0.0475539 19.2885C0.015061 19.3578 -0.00118054 19.4336 6.67762e-05 19.5102C0.00202263 19.6051 0.0309857 19.6976 0.0835663 19.7767C0.098244 19.799 0.114984 19.8199 0.133566 19.8392C0.153027 19.8603 0.174273 19.8797 0.197066 19.8972L2.68805 21.8906C2.76157 21.9494 2.85016 21.9861 2.94365 21.9967C3.03713 22.0074 3.13171 21.9914 3.21652 21.9506C3.30133 21.9099 3.37293 21.8461 3.42308 21.7665C3.47323 21.6869 3.49991 21.5947 3.50005 21.5006V20.0007H23.4999C23.6325 20.0007 23.7597 19.948 23.8535 19.8542C23.9472 19.7604 23.9999 19.6333 23.9999 19.5007C23.9999 19.3681 23.9472 19.2409 23.8535 19.1471C23.7597 19.0533 23.6325 19.0007 23.4999 19.0007Z" fill="url(#paint2_linear_202_751)"/>
<g filter="url(#filter0_i_202_751)">
<path d="M11.9992 18.9238C15.8228 18.9238 18.9223 15.8242 18.9223 12.0007C18.9223 8.1772 15.8228 5.07764 11.9992 5.07764C8.17574 5.07764 5.07617 8.1772 5.07617 12.0007C5.07617 15.8242 8.17574 18.9238 11.9992 18.9238Z" fill="white" fill-opacity="0.16"/>
</g>
<defs>
<filter id="filter0_i_202_751" x="5.07617" y="5.07764" width="13.8462" height="15.8461" filterUnits="userSpaceOnUse" color-interpolation-filters="sRGB">
<feFlood flood-opacity="0" result="BackgroundImageFix"/>
<feBlend mode="normal" in="SourceGraphic" in2="BackgroundImageFix" result="shape"/>
<feColorMatrix in="SourceAlpha" type="matrix" values="0 0 0 0 0 0 0 0 0 0 0 0 0 0 0 0 0 0 127 0" result="hardAlpha"/>
<feOffset dy="2"/>
<feGaussianBlur stdDeviation="1"/>
<feComposite in2="hardAlpha" operator="arithmetic" k2="-1" k3="1"/>
<feColorMatrix type="matrix" values="0 0 0 0 1 0 0 0 0 1 0 0 0 0 1 0 0 0 0.4 0"/>
<feBlend mode="normal" in2="shape" result="effect1_innerShadow_202_751"/>
</filter>
<linearGradient id="paint0_linear_202_751" x1="0.363549" y1="2.83341" x2="5.2237" y2="13.1481" gradientUnits="userSpaceOnUse">
<stop stop-color="#724EFF"/>
<stop offset="0.635417" stop-color="#FF21C1"/>
<stop offset="1" stop-color="#FF7C32"/>
</linearGradient>
<linearGradient id="paint1_linear_202_751" x1="7.15127" y1="8.66635" x2="16.4747" y2="12.7894" gradientUnits="userSpaceOnUse">
<stop stop-color="#724EFF"/>
<stop offset="0.635417" stop-color="#FF21C1"/>
<stop offset="1" stop-color="#FF7C32"/>
</linearGradient>
<linearGradient id="paint2_linear_202_751" x1="0.363549" y1="17.8337" x2="5.22148" y2="28.1465" gradientUnits="userSpaceOnUse">
<stop stop-color="#724EFF"/>
<stop offset="0.635417" stop-color="#FF21C1"/>
<stop offset="1" stop-color="#FF7C32"/>
</linearGradient>
</defs>
</svg>
